# xmcd
#
# Track frame offsets:
#	150
#	16440
#	29847
#	43387
#	57265
#	71317
#	87010
#	100172
#	114192
#	129647
#	141445
#	156380
#	171602
#	188147
#
# Disc length: 2713 seconds
#
# Revision: 2
# Processed by: cddbd v1.5.2PL0 Copyright (c) Steve Scherf et al.
# Submitted via: EasyCDDAExtractor 9.1.3.1
#
DISCID=cb0a970e
DTITLE=João Mineiro and Marciano - Bis 2 CD's - Disco 1
DYEAR=2000
DGENRE=Country Geral
TTITLE0=Se Eu Não Puder Te Esquecer
TTITLE1=Crises de Amor
TTITLE2=Aline
TTITLE3=Eu Preciso De Um Amigo
TTITLE4=A Pretendida
TTITLE5=A Minha Cabeça Mudou
TTITLE6=Esta Noite Como Lembrança
TTITLE7=O Quanto Eu Te Quero
TTITLE8=Impossível Acreditar Que Eu Perdi Você
TTITLE9=A Mulher Que Eu Amo
TTITLE10=No Mesmo Lugar
TTITLE11=Bolero
TTITLE12=Esse Meu Coração Sem Juízo
TTITLE13=As Parede Azuis
EXTD=YEAR: 2000
EXTT0=
EXTT1=
EXTT2=
EXTT3=
EXTT4=
EXTT5=
EXTT6=
EXTT7=
EXTT8=
EXTT9=
EXTT10=
EXTT11=
EXTT12=
EXTT13=
PLAYORDER=
